<?xml version="1.0" encoding="UTF-8" standalone="no"?>
<svg width="20px" height="20px" viewBox="0 0 20 20" version="1.1" xmlns="http://www.w3.org/2000/svg" xmlns:xlink="http://www.w3.org/1999/xlink">
    <!-- Generator: Sketch 47.1 (45422) - http://www.bohemiancoding.com/sketch -->
    <title>ico-dribbble</title>
    <desc>Created with Sketch.</desc>
    <defs></defs>
    <g id="Home" stroke="none" stroke-width="1" fill="none" fill-rule="evenodd">
        <g id="Home-Desktop@2x" transform="translate(-1105.000000, -261.000000)" fill-rule="nonzero" fill="#000000">
            <g id="Group-2" transform="translate(1105.000000, 151.000000)">
                <g id="social-23" transform="translate(0.000000, 110.000000)">
                    <path d="M15.6568542,4.34314575 C14.8345973,3.52088885 13.8778806,2.91504176 12.8574809,2.52560455 C12.519926,4.65571275 11.5202518,6.7675112 9.9740359,8.55982235 L11.4401761,10.0259625 C13.2322636,8.47992725 15.343904,7.48015175 17.4744021,7.14253655 C17.0849651,6.12213035 16.4791158,5.16540735 15.6568542,4.34314575 Z M12.8588821,11.4446685 L16.3201956,14.905982 C17.6355294,13.2158749 18.1784059,11.1193996 17.948825,9.0938525 C16.1822356,9.33930065 14.3950385,10.1533642 12.8588821,11.4446685 Z M10.025963,11.4401766 L8.55982065,9.97403425 C6.7672746,11.5204397 4.65531115,12.5200061 2.52561169,12.8574997 C2.91504916,13.8778923 3.52089385,14.8346024 4.34314575,15.6568543 C5.16540585,16.4791144 6.12212685,17.0849629 7.1425309,17.4743999 C7.48012635,15.3440287 8.47986905,13.2323367 10.025963,11.4401766 Z M14.905982,16.3201956 L11.4446691,12.8588826 C10.1532996,14.3951212 9.3392707,16.1823729 9.09384585,17.9488242 C11.119395,18.1784071 13.2158731,17.6355308 14.905982,16.3201956 Z M5.09401805,3.67980445 L8.55532965,7.1411161 C9.84683465,5.60470695 10.6607909,3.8173422 10.9061682,2.05117741 C8.88061475,1.82159042 6.78413085,2.3644661 5.09401805,3.67980445 Z M7.14111415,8.5553277 L3.67980445,5.09401805 C2.36446125,6.7841371 1.82158641,8.8806302 2.05117996,10.9061906 C3.8168997,10.6608856 5.6044395,9.84704345 7.14111415,8.5553277 Z M2.92893219,17.0710678 C-0.97631073,13.1658249 -0.97631073,6.8341751 2.92893219,2.92893219 C6.8341751,-0.97631073 13.1658249,-0.97631073 17.0710678,2.92893219 C20.9763107,6.8341751 20.9763107,13.1658249 17.0710678,17.0710678 C13.1658249,20.9763107 6.8341751,20.9763107 2.92893219,17.0710678 Z" id="Combined-Shape"></path>
                </g>
            </g>
        </g>
    </g>
</svg>