<?xml version="1.0" encoding="UTF-8" standalone="no"?>
<svg width="23px" height="20px" viewBox="0 0 23 20" version="1.1" xmlns="http://www.w3.org/2000/svg" xmlns:xlink="http://www.w3.org/1999/xlink">
    <!-- Generator: Sketch 47.1 (45422) - http://www.bohemiancoding.com/sketch -->
    <title>ico-twitter</title>
    <desc>Created with Sketch.</desc>
    <defs></defs>
    <g id="Home" stroke="none" stroke-width="1" fill="none" fill-rule="evenodd">
        <g id="Home-Desktop@2x" transform="translate(-1105.000000, -206.000000)" fill-rule="nonzero" fill="#000000">
            <g id="Group-2" transform="translate(1105.000000, 151.000000)">
                <g id="social-03" transform="translate(0.000000, 55.000000)">
                    <path d="M6.44423822,14.0795577 C7.15947261,14.5630506 7.07417533,15.6418605 6.29184711,16.006947 C5.99877694,16.1437131 3.39348722,16.8473058 3.39348722,16.8473058 C4.431464,17.4586674 5.88631394,17.7778546 7.78839144,17.7778546 C13.8913163,17.7778546 18.3445499,13.2951512 18.3491013,6.58596589 C18.3491799,6.47010306 18.343947,6.14261872 18.343947,6.11118795 C18.343947,3.80081122 17.1321992,2.21126231 15.0164017,2.222284 C12.8855192,2.23338428 11.6772803,3.81150711 11.6772803,6.11118795 C11.6772803,6.24469717 11.6737539,7.07397722 11.6737539,7.2088035 C11.6737539,7.87521089 11.0912002,8.391721 10.4295882,8.31191928 C7.64282022,7.9757875 5.11263611,6.75253495 3.16036306,4.85723967 C3.16036306,4.85723967 2.90368488,5.82499661 2.84096561,6.26976728 C2.87726611,6.31289389 3.56629939,7.01014561 3.95919278,7.29069011 C4.26067372,7.50596178 4.58710667,7.70112028 4.93892606,7.87131695 C5.49133222,8.13854983 5.72251083,8.80299856 5.45527794,9.35540472 C5.18804511,9.90781089 4.52359639,10.1389896 3.97119022,9.87175667 C3.62181461,9.70274217 3.29092462,9.51498195 2.97831184,9.3111275 C3.41818656,11.1075024 4.52895183,12.7848388 6.44423822,14.0795577 Z M21.0579412,2.23359917 C22.1780693,2.17346216 22.5717542,2.87036939 21.9255554,3.79081345 L20.5579746,5.73879267 C20.5634277,5.86188967 20.5714236,6.43926895 20.5713231,6.58747339 C20.5659419,14.519766 15.1216594,20.0000768 7.78839144,20.0000768 C4.16689339,20.0000768 1.82718319,19.0539548 0.214811622,16.8462656 C-0.26619955,16.1876561 0.102605222,15.252518 0.903691133,15.0995489 C0.94043705,15.0925322 3.5049625,14.5382658 3.5049625,14.5382658 C0.118239,11.113765 -0.194027067,6.24905572 1.80949367,2.28234645 C2.17917238,1.55043089 3.18715234,1.45737253 3.68458372,2.10923505 C5.12484022,3.99662961 7.14853967,5.32072556 9.46174933,5.882515 C9.572177,2.54729345 11.6045587,0.0178047284 15.0048257,9.19283535e-05 C17.0329382,-0.0104729939 18.5768867,0.890357078 19.5174267,2.31630578 L21.0579412,2.23359917 Z" id="Combined-Shape"></path>
                </g>
            </g>
        </g>
    </g>
</svg>