<?xml version="1.0" encoding="UTF-8" standalone="no"?>
<svg width="20px" height="20px" viewBox="0 0 20 20" version="1.1" xmlns="http://www.w3.org/2000/svg" xmlns:xlink="http://www.w3.org/1999/xlink">
    <!-- Generator: Sketch 47.1 (45422) - http://www.bohemiancoding.com/sketch -->
    <title>Combined-Shape</title>
    <desc>Created with Sketch.</desc>
    <defs></defs>
    <g id="Home" stroke="none" stroke-width="1" fill="none" fill-rule="evenodd">
        <g id="Home-Desktop@2x" transform="translate(-1105.000000, -151.000000)" fill-rule="nonzero" fill="#000000">
            <g id="Group-2" transform="translate(1105.000000, 151.000000)">
                <g id="social-08">
                    <path d="M0,17.0049107 L0,2.99508929 C0,1.34078395 1.34050119,0 2.99508929,0 L17.0049107,0 C18.6592161,0 20,1.34050119 20,2.99508929 L20,17.0049107 C20,18.6592161 18.6594988,20 17.0049107,20 L2.99508929,20 C1.34078395,20 0,18.6594988 0,17.0049107 Z M2.99508929,2 C2.44516513,2 2,2.44525904 2,2.99508929 L2,17.0049107 C2,17.5548348 2.44525904,18 2.99508929,18 L17.0049107,18 C17.5548348,18 18,17.5547409 18,17.0049107 L18,2.99508929 C18,2.44516513 17.5547409,2 17.0049107,2 L2.99508929,2 Z M5,9.00292935 C5,8.44902675 5.4438648,8 6,8 C6.55228475,8 7,8.44853005 7,9.00292935 L7,13.9970707 C7,14.5509732 6.5561352,15 6,15 C5.44771525,15 5,14.55147 5,13.9970707 L5,9.00292935 Z M6,7 C5.44771525,7 5,6.55228475 5,6 C5,5.44771525 5.44771525,5 6,5 C6.55228475,5 7,5.44771525 7,6 C7,6.55228475 6.55228475,7 6,7 Z M10.5,11.2502473 L10.5,14 C10.5,14.5522847 10.0522848,15 9.5,15 C8.94771525,15 8.5,14.5522847 8.5,14 L8.5,11.2502473 C8.5,9.45590885 9.95687885,8 11.75,8 C13.5438416,8 15,9.4581125 15,11.2502473 L15,14 C15,14.5522847 14.5522847,15 14,15 C13.4477152,15 13,14.5522847 13,14 L13,11.2502473 C13,10.5620821 12.4386713,10 11.75,10 C11.0611503,10 10.5,10.5607766 10.5,11.2502473 Z" id="Combined-Shape"></path>
                </g>
            </g>
        </g>
    </g>
</svg>